<?xml version="1.0" encoding="UTF-8"?>
<svg xmlns="http://www.w3.org/2000/svg" viewBox="0 0 1024 768" role="img" aria-labelledby="title desc">
  <title id="title">Vector City football field</title>
  <desc id="desc">Pseudo-perspective football field for a 4 by 3 arcade playfield.</desc>
  <defs>
    <linearGradient id="sky" x1="0" y1="0" x2="0" y2="1"><stop stop-color="#020713"/><stop offset="1" stop-color="#102548"/></linearGradient>
    <linearGradient id="turfGradient" x1="0" y1="0" x2="0" y2="1"><stop stop-color="#073f42"/><stop offset="1" stop-color="#0d5a55"/></linearGradient>
    <pattern id="endzonePattern" width="36" height="36" patternUnits="userSpaceOnUse" patternTransform="skewX(-14)"><rect width="18" height="36" fill="#7d4dff"/><rect x="18" width="18" height="36" fill="#39257f"/></pattern>
    <radialGradient id="fieldLight" cx="50%" cy="27%" r="68%"><stop stop-color="#1de6ef" stop-opacity="0.17"/><stop offset="1" stop-color="#020713" stop-opacity="0"/></radialGradient>
  </defs>
  <rect width="1024" height="768" fill="url(#sky)"/>
  <path d="M0 28 Q512-24 1024 28 V152 Q512 106 0 152Z" fill="#020713"/>
  <g><circle cx="18" cy="36" r="2" fill="#1de6ef" opacity="0.26"/>
    <circle cx="91" cy="65" r="3" fill="#ff5f61" opacity="0.35"/>
    <circle cx="164" cy="94" r="4" fill="#7d4dff" opacity="0.44"/>
    <circle cx="237" cy="123" r="2" fill="#ffc857" opacity="0.53"/>
    <circle cx="310" cy="47" r="3" fill="#1de6ef" opacity="0.62"/>
    <circle cx="383" cy="76" r="4" fill="#ff5f61" opacity="0.26"/>
    <circle cx="456" cy="105" r="2" fill="#7d4dff" opacity="0.35"/>
    <circle cx="529" cy="134" r="3" fill="#ffc857" opacity="0.44"/>
    <circle cx="602" cy="58" r="4" fill="#1de6ef" opacity="0.53"/>
    <circle cx="675" cy="87" r="2" fill="#ff5f61" opacity="0.62"/>
    <circle cx="748" cy="116" r="3" fill="#7d4dff" opacity="0.26"/>
    <circle cx="821" cy="40" r="4" fill="#ffc857" opacity="0.35"/>
    <circle cx="894" cy="69" r="2" fill="#1de6ef" opacity="0.44"/>
    <circle cx="967" cy="98" r="3" fill="#ff5f61" opacity="0.53"/>
    <circle cx="52" cy="127" r="4" fill="#7d4dff" opacity="0.62"/>
    <circle cx="125" cy="51" r="2" fill="#ffc857" opacity="0.26"/>
    <circle cx="198" cy="80" r="3" fill="#1de6ef" opacity="0.35"/>
    <circle cx="271" cy="109" r="4" fill="#ff5f61" opacity="0.44"/>
    <circle cx="344" cy="138" r="2" fill="#7d4dff" opacity="0.53"/>
    <circle cx="417" cy="62" r="3" fill="#ffc857" opacity="0.62"/>
    <circle cx="490" cy="91" r="4" fill="#1de6ef" opacity="0.26"/>
    <circle cx="563" cy="120" r="2" fill="#ff5f61" opacity="0.35"/>
    <circle cx="636" cy="44" r="3" fill="#7d4dff" opacity="0.44"/>
    <circle cx="709" cy="73" r="4" fill="#ffc857" opacity="0.53"/>
    <circle cx="782" cy="102" r="2" fill="#1de6ef" opacity="0.62"/>
    <circle cx="855" cy="131" r="3" fill="#ff5f61" opacity="0.26"/>
    <circle cx="928" cy="55" r="4" fill="#7d4dff" opacity="0.35"/>
    <circle cx="1001" cy="84" r="2" fill="#ffc857" opacity="0.44"/>
    <circle cx="86" cy="113" r="3" fill="#1de6ef" opacity="0.53"/>
    <circle cx="159" cy="37" r="4" fill="#ff5f61" opacity="0.62"/>
    <circle cx="232" cy="66" r="2" fill="#7d4dff" opacity="0.26"/>
    <circle cx="305" cy="95" r="3" fill="#ffc857" opacity="0.35"/>
    <circle cx="378" cy="124" r="4" fill="#1de6ef" opacity="0.44"/>
    <circle cx="451" cy="48" r="2" fill="#ff5f61" opacity="0.53"/>
    <circle cx="524" cy="77" r="3" fill="#7d4dff" opacity="0.62"/>
    <circle cx="597" cy="106" r="4" fill="#ffc857" opacity="0.26"/>
    <circle cx="670" cy="135" r="2" fill="#1de6ef" opacity="0.35"/>
    <circle cx="743" cy="59" r="3" fill="#ff5f61" opacity="0.44"/>
    <circle cx="816" cy="88" r="4" fill="#7d4dff" opacity="0.53"/>
    <circle cx="889" cy="117" r="2" fill="#ffc857" opacity="0.62"/>
    <circle cx="962" cy="41" r="3" fill="#1de6ef" opacity="0.26"/>
    <circle cx="47" cy="70" r="4" fill="#ff5f61" opacity="0.35"/>
    <circle cx="120" cy="99" r="2" fill="#7d4dff" opacity="0.44"/>
    <circle cx="193" cy="128" r="3" fill="#ffc857" opacity="0.53"/>
    <circle cx="266" cy="52" r="4" fill="#1de6ef" opacity="0.62"/>
    <circle cx="339" cy="81" r="2" fill="#ff5f61" opacity="0.26"/>
    <circle cx="412" cy="110" r="3" fill="#7d4dff" opacity="0.35"/>
    <circle cx="485" cy="139" r="4" fill="#ffc857" opacity="0.44"/>
    <circle cx="558" cy="63" r="2" fill="#1de6ef" opacity="0.53"/>
    <circle cx="631" cy="92" r="3" fill="#ff5f61" opacity="0.62"/>
    <circle cx="704" cy="121" r="4" fill="#7d4dff" opacity="0.26"/>
    <circle cx="777" cy="45" r="2" fill="#ffc857" opacity="0.35"/>
    <circle cx="850" cy="74" r="3" fill="#1de6ef" opacity="0.44"/>
    <circle cx="923" cy="103" r="4" fill="#ff5f61" opacity="0.53"/>
    <circle cx="996" cy="132" r="2" fill="#7d4dff" opacity="0.62"/>
    <circle cx="81" cy="56" r="3" fill="#ffc857" opacity="0.26"/>
    <circle cx="154" cy="85" r="4" fill="#1de6ef" opacity="0.35"/>
    <circle cx="227" cy="114" r="2" fill="#ff5f61" opacity="0.44"/>
    <circle cx="300" cy="38" r="3" fill="#7d4dff" opacity="0.53"/>
    <circle cx="373" cy="67" r="4" fill="#ffc857" opacity="0.62"/>
    <circle cx="446" cy="96" r="2" fill="#1de6ef" opacity="0.26"/>
    <circle cx="519" cy="125" r="3" fill="#ff5f61" opacity="0.35"/>
    <circle cx="592" cy="49" r="4" fill="#7d4dff" opacity="0.44"/>
    <circle cx="665" cy="78" r="2" fill="#ffc857" opacity="0.53"/>
    <circle cx="738" cy="107" r="3" fill="#1de6ef" opacity="0.62"/>
    <circle cx="811" cy="136" r="4" fill="#ff5f61" opacity="0.26"/>
    <circle cx="884" cy="60" r="2" fill="#7d4dff" opacity="0.35"/>
    <circle cx="957" cy="89" r="3" fill="#ffc857" opacity="0.44"/>
    <circle cx="42" cy="118" r="4" fill="#1de6ef" opacity="0.53"/>
    <circle cx="115" cy="42" r="2" fill="#ff5f61" opacity="0.62"/>
    <circle cx="188" cy="71" r="3" fill="#7d4dff" opacity="0.26"/>
    <circle cx="261" cy="100" r="4" fill="#ffc857" opacity="0.35"/></g>
  <path d="M255 119 L769 119 L1060 768 L-36 768Z" fill="url(#turfGradient)" stroke="#1de6ef" stroke-opacity="0.35" stroke-width="5"/>
  <path d="M314 155 H710 L738 217 H286Z" fill="url(#endzonePattern)" stroke="#f7fcff" stroke-width="5"/>
  <text x="512" y="201" text-anchor="middle" font-family="Arial Black, sans-serif" font-size="40" letter-spacing="8" fill="#f7fcff" opacity="0.86">VECTOR CITY</text>
  <g><path d="M272 178.0 H752" stroke="#f7fcff" stroke-opacity="0.42" stroke-width="3.0"/>
      <text x="302.0" y="168.0" fill="#f7fcff" fill-opacity="0.6" font-family="Arial Black, sans-serif" font-size="18">GOAL</text>
    <path d="M227.71428571428572 200.1 H796.2857142857142" stroke="#f7fcff" stroke-opacity="0.48" stroke-width="3.6"/>
      <text x="257.7" y="190.1" fill="#f7fcff" fill-opacity="0.6" font-family="Arial Black, sans-serif" font-size="20">10</text>
    <path d="M183.42857142857144 246.1 H840.5714285714286" stroke="#f7fcff" stroke-opacity="0.53" stroke-width="4.1"/>
      <text x="213.4" y="236.1" fill="#f7fcff" fill-opacity="0.6" font-family="Arial Black, sans-serif" font-size="21">20</text>
    <path d="M139.1428571428571 309.3 H884.8571428571429" stroke="#f7fcff" stroke-opacity="0.59" stroke-width="4.7"/>
      <text x="169.1" y="299.3" fill="#f7fcff" fill-opacity="0.6" font-family="Arial Black, sans-serif" font-size="23">30</text>
    <path d="M94.85714285714289 387.2 H929.1428571428571" stroke="#f7fcff" stroke-opacity="0.65" stroke-width="5.3"/>
      <text x="124.9" y="377.2" fill="#f7fcff" fill-opacity="0.6" font-family="Arial Black, sans-serif" font-size="24">40</text>
    <path d="M50.571428571428555 478.3 H973.4285714285714" stroke="#f7fcff" stroke-opacity="0.71" stroke-width="5.9"/>
      <text x="80.6" y="468.3" fill="#f7fcff" fill-opacity="0.6" font-family="Arial Black, sans-serif" font-size="26">50</text>
    <path d="M6.285714285714278 581.5 H1017.7142857142858" stroke="#f7fcff" stroke-opacity="0.76" stroke-width="6.4"/>
      <text x="36.3" y="571.5" fill="#f7fcff" fill-opacity="0.6" font-family="Arial Black, sans-serif" font-size="27">60</text>
    <path d="M-38 696.0 H1062" stroke="#f7fcff" stroke-opacity="0.82" stroke-width="7.0"/>
      <text x="-8.0" y="686.0" fill="#f7fcff" fill-opacity="0.6" font-family="Arial Black, sans-serif" font-size="29">70</text></g>
  <path d="M255 119 L-36 768 M769 119 L1060 768" stroke="#f7fcff" stroke-width="8" opacity="0.8"/>
  <path d="M362 119 L238 768 M662 119 L786 768" stroke="#f7fcff" stroke-width="3" stroke-dasharray="11 13" opacity="0.28"/>
  <rect width="1024" height="768" fill="url(#fieldLight)" pointer-events="none"/>
  <path d="M0 0 H1024 V768 H0Z" fill="none" stroke="#1de6ef" stroke-opacity="0.18" stroke-width="22"/>
</svg>
